<svg width="56" height="32" viewBox="0 0 56 32" fill="none" xmlns="http://www.w3.org/2000/svg">
<path d="M47.0332 24.8999H55.3332L27.6666 0L0 24.8999H8.29997L27.6666 7.44231L47.0332 24.8999ZM13.8333 5.00765V0H5.53332V12.45L13.8333 5.00765Z" fill="#7C6A46"/>
<path d="M25.846 23.7379C25.846 24.4462 25.68 25.0936 25.348 25.6801C25.0271 26.2556 24.5346 26.7204 23.8706 27.0745C23.2177 27.4176 22.4154 27.5891 21.4636 27.5891H19.8534V31.5399H16.5999V19.8369H21.4636C22.4043 19.8369 23.2011 20.0029 23.854 20.3349C24.518 20.6669 25.016 21.1262 25.348 21.7127C25.68 22.2992 25.846 22.9743 25.846 23.7379ZM21.1482 24.9995C22.0668 24.9995 22.526 24.579 22.526 23.7379C22.526 22.8858 22.0668 22.4597 21.1482 22.4597H19.8534V24.9995H21.1482Z" fill="#7C6A46"/>
<path d="M38.5407 19.8369L34.5069 31.5399H30.3403L26.2899 19.8369H29.7759L32.4319 28.2863L35.0713 19.8369H38.5407Z" fill="#7C6A46"/>
</svg>
