<svg version="1.1" id="Layer_1" xmlns="http://www.w3.org/2000/svg" xmlns:xlink="http://www.w3.org/1999/xlink" x="0px" y="0px"
	 width="100%" viewBox="0 0 258 255" enable-background="new 0 0 258 255" xml:space="preserve">
<path fill="#FFFEFE" opacity="1.000000" stroke="none" 
	d="
M144.000000,256.000000 
	C96.000000,256.000000 48.500000,256.000000 1.000000,256.000000 
	C1.000000,171.000000 1.000000,86.000000 1.000000,1.000000 
	C87.000000,1.000000 173.000000,1.000000 259.000000,1.000000 
	C259.000000,86.000000 259.000000,171.000000 259.000000,256.000000 
	C220.833328,256.000000 182.666672,256.000000 144.000000,256.000000 
M237.002991,78.003151 
	C237.002991,78.003151 236.976852,78.035461 236.920166,77.325340 
	C234.667633,73.373878 232.784164,74.846931 230.275406,77.981316 
	C229.517303,77.987755 228.759201,77.994202 227.987320,77.253777 
	C226.804794,76.225304 225.622253,75.196823 224.439713,74.168350 
	C223.625290,75.735512 222.810867,77.302681 221.486603,79.152794 
	C221.104813,79.142532 220.723022,79.132263 219.694260,79.063446 
	C219.145447,79.331642 218.596619,79.599838 217.299500,79.948822 
	C216.556091,80.051971 215.812683,80.155121 214.949600,79.517746 
	C213.775833,79.361435 212.533142,78.879044 211.441177,79.109795 
	C208.133118,79.808891 204.883469,80.784225 201.611053,81.651939 
	C201.303696,81.133850 200.996338,80.615761 200.688980,80.097679 
	C202.269913,79.275833 203.850845,78.453995 205.431778,77.632149 
	C205.292374,77.081955 205.152969,76.531761 205.013550,75.981567 
	C203.351868,75.320633 201.690186,74.659698 199.839951,73.078064 
	C199.888260,67.052116 199.936554,61.026173 200.755066,54.901821 
	C201.457062,52.794136 202.159058,50.686451 202.761993,47.816288 
	C203.191925,42.929459 201.054459,40.887661 196.080536,41.144127 
	C190.639359,41.424690 185.156097,40.968071 179.726135,41.341476 
	C177.963928,41.462666 174.981995,43.081905 174.893845,44.200085 
	C174.724335,46.350231 176.222382,48.631844 177.431030,51.536602 
	C177.577057,53.952862 177.723083,56.369118 177.279099,59.132889 
	C176.831970,59.215702 176.384827,59.298519 175.466278,58.841850 
	C172.039108,56.195908 168.611938,53.549965 164.973892,50.333076 
	C164.312469,49.906296 163.651031,49.479519 162.544571,48.547054 
	C154.368744,42.000282 146.153885,35.501392 138.037064,28.882271 
	C134.955276,26.369144 132.076096,26.349268 129.060303,28.816149 
	C126.357643,31.026903 123.657524,33.241131 120.932709,35.424393 
	C89.530487,60.585373 58.122051,85.738594 26.720095,110.899902 
	C21.868027,114.787697 21.909801,117.087502 27.281534,120.233887 
	C34.251469,124.316360 41.511559,124.491364 48.697876,120.744972 
	C51.321968,119.376968 53.721493,117.578194 56.097271,116.908089 
	C56.109055,148.518677 56.108398,180.129288 56.165710,211.739807 
	C56.168911,213.505295 56.650829,215.269913 57.376709,217.780045 
	C63.518349,217.838913 69.698418,218.357254 75.792503,217.847504 
	C84.641350,217.107346 90.803116,211.318726 92.674873,202.607346 
	C93.367996,199.381485 93.614555,196.007202 93.633392,192.698151 
	C93.709206,179.375885 93.615936,166.052689 93.586349,152.729828 
	C93.582527,151.010040 93.585815,149.290253 93.585815,146.217926 
	C102.684776,154.900391 110.665939,162.600662 118.741173,170.200958 
	C129.396439,180.229538 140.125504,190.179703 150.856079,200.133286 
	C150.856079,200.133286 150.824371,200.131592 151.085159,200.751389 
	C159.430710,209.928452 169.068451,216.761337 181.747223,218.657166 
	C193.946823,220.481323 204.024963,216.046036 208.444717,206.340164 
	C208.444717,206.340164 208.357864,206.345825 208.833633,206.058777 
	C208.901443,205.702988 208.969238,205.347183 209.413116,204.564453 
	C209.548157,204.027908 209.683197,203.491379 210.158325,202.188492 
	C210.283951,201.706482 210.515091,201.225540 210.519958,200.742340 
	C210.691696,183.654190 210.857635,166.565857 210.911728,149.477219 
	C210.913162,149.025269 209.666412,148.569382 208.268173,147.999664 
	C207.525909,148.007599 206.783630,148.015549 205.368591,147.975082 
	C204.556717,148.542175 203.744827,149.109268 202.287292,149.782394 
	C201.857498,149.844131 201.427689,149.905853 200.597565,149.494492 
	C200.046143,149.887665 199.494720,150.280823 198.410782,150.907104 
	C197.284531,151.222565 196.158279,151.538040 195.028824,151.140106 
	C195.017380,150.427032 195.005936,149.713943 195.175461,148.745804 
	C195.175461,148.745804 195.476532,148.661163 196.186966,148.831085 
	C196.798630,148.245956 197.410309,147.660828 198.539032,146.614075 
	C202.433075,144.454269 206.490829,142.541656 210.191864,140.090439 
	C223.758545,131.105133 229.061646,117.626297 231.039673,102.100174 
	C231.908340,95.281822 234.158829,88.639511 236.567093,81.956299 
	C237.653488,81.218033 238.739883,80.479767 239.826279,79.741493 
	C238.872955,79.168030 237.919617,78.594559 237.002991,78.003151 
z"/>
<path fill="#7F653E" opacity="1.000000" stroke="none" 
	d="
M56.223465,115.975937 
	C53.721493,117.578194 51.321968,119.376968 48.697876,120.744972 
	C41.511559,124.491364 34.251469,124.316360 27.281534,120.233887 
	C21.909801,117.087502 21.868027,114.787697 26.720095,110.899902 
	C58.122051,85.738594 89.530487,60.585373 120.932709,35.424393 
	C123.657524,33.241131 126.357643,31.026903 129.060303,28.816149 
	C132.076096,26.349268 134.955276,26.369144 138.037064,28.882271 
	C146.153885,35.501392 154.368744,42.000282 162.817474,49.126350 
	C163.788498,50.105103 164.486633,50.504559 165.184769,50.904022 
	C168.611938,53.549965 172.039108,56.195908 175.764450,59.397270 
	C176.706665,60.298218 177.350708,60.643749 178.001465,61.365711 
	C178.296982,64.234329 179.714569,67.490204 178.648575,69.065819 
	C176.131439,72.786324 176.924011,76.302910 179.235565,78.584450 
	C180.849426,80.177345 184.722855,80.352303 187.324509,79.836494 
	C190.122314,79.281822 191.353149,79.835106 191.917282,82.557358 
	C188.151749,85.259026 184.600662,87.700760 180.662155,90.198761 
	C179.510010,90.186783 178.745285,90.118538 177.807205,89.761154 
	C164.108414,78.667755 150.543488,67.912224 137.093948,57.014275 
	C134.672989,55.052608 133.029373,54.542130 130.292709,56.773731 
	C114.680199,69.504860 98.880363,82.006149 83.167297,94.614349 
	C82.355232,95.265953 81.755547,96.182228 80.677773,97.405785 
	C88.944519,98.942612 96.013710,101.557640 100.990036,107.662903 
	C98.734581,108.217232 96.867744,108.608154 94.958366,108.639015 
	C93.987946,107.598717 93.060066,106.918488 92.132202,106.238251 
	C91.828445,106.732811 91.524689,107.227364 91.220932,107.721909 
	C92.480309,108.148247 93.739700,108.574585 95.049942,109.383163 
	C98.575645,113.402824 100.780228,113.012672 102.802513,108.606506 
	C112.213066,117.231262 121.380898,125.643684 130.418808,134.193466 
	C144.026123,147.065811 157.542542,160.034241 171.215027,173.265915 
	C172.088120,173.941360 172.843811,174.312714 173.599487,174.684067 
	C173.661102,174.114899 173.722733,173.545746 173.898209,172.611908 
	C173.982300,171.489761 173.952530,170.732315 174.126343,169.675079 
	C174.414810,167.906281 174.499664,166.437241 174.686584,164.570190 
	C175.151230,161.769424 175.513824,159.366699 176.143738,156.741302 
	C176.794754,155.001297 177.178436,153.483948 177.714294,151.619720 
	C178.615204,148.862305 179.363922,146.451767 180.397186,143.831833 
	C181.494812,141.426376 182.307877,139.230301 183.365051,136.797974 
	C187.743240,129.383499 191.877319,122.205284 196.288452,114.847832 
	C198.386139,112.586166 200.206757,110.503731 202.027374,108.421295 
	C201.586426,107.945061 201.145477,107.468834 200.704529,106.992599 
	C198.761200,108.548897 196.817871,110.105186 194.576767,111.828766 
	C190.807419,116.210739 187.335831,120.425430 183.615387,124.786850 
	C183.225067,125.283302 183.083618,125.633018 182.717865,126.103775 
	C182.277527,126.677872 182.061462,127.130936 181.601440,127.746628 
	C181.240280,128.273407 181.123062,128.637543 181.002930,129.000854 
	C181.000000,129.000000 181.003418,129.006210 180.750076,129.164307 
	C180.266617,129.861313 180.036499,130.400223 179.545227,131.150665 
	C177.926407,134.246231 176.568726,137.130280 175.057129,140.223785 
	C174.890030,140.606033 174.876846,140.778824 174.609726,141.185120 
	C173.469727,144.057281 172.583679,146.695923 171.380585,149.505219 
	C170.011642,148.794327 168.959747,147.912796 167.939957,146.641693 
	C167.743912,145.514328 167.515747,144.776505 167.403656,143.784271 
	C167.351349,143.018143 167.182968,142.506424 167.053162,141.527649 
	C167.379837,134.035507 167.667953,127.010414 168.163910,119.792465 
	C168.435104,119.055916 168.498428,118.512215 168.744904,117.636185 
	C172.012238,109.445473 175.494537,101.832184 182.317490,96.095566 
	C182.918259,95.800537 183.197739,95.487747 183.785980,95.070480 
	C193.133957,87.355850 203.941391,83.469620 215.069275,80.258270 
	C215.812683,80.155121 216.556091,80.051971 217.776993,80.196892 
	C218.950073,80.003975 219.645660,79.562988 220.341232,79.122009 
	C220.723022,79.132263 221.104813,79.142532 222.125961,79.065544 
	C224.510574,78.652412 226.255844,78.326530 228.001099,78.000648 
	C228.759201,77.994202 229.517303,77.987755 231.058655,77.926643 
	C233.553543,77.926468 235.265198,77.980965 236.976852,78.035461 
	C236.976852,78.035461 237.002991,78.003151 236.922638,78.346695 
	C236.488815,79.765923 236.135361,80.841599 235.781891,81.917274 
	C234.158829,88.639511 231.908340,95.281822 231.039673,102.100174 
	C229.061646,117.626297 223.758545,131.105133 210.191864,140.090439 
	C206.490829,142.541656 202.433075,144.454269 197.965973,146.857590 
	C196.754135,147.621124 196.115326,148.141144 195.476532,148.661163 
	C195.476532,148.661163 195.175461,148.745804 194.741806,148.934906 
	C193.142517,150.039932 191.976898,150.955887 190.811264,151.871841 
	C190.962723,152.233978 191.114182,152.596115 191.265640,152.958267 
	C192.521103,152.590012 193.776566,152.221756 195.032028,151.853500 
	C196.158279,151.538040 197.284531,151.222565 198.899902,150.883331 
	C199.925308,150.562225 200.461609,150.264908 200.997894,149.967590 
	C201.427689,149.905853 201.857498,149.844131 202.918839,149.854980 
	C204.380707,149.292877 205.211044,148.658173 206.041367,148.023483 
	C206.783630,148.015549 207.525909,148.007599 208.632111,148.518539 
	C208.995316,165.358475 208.994614,181.679550 208.642593,197.964172 
	C206.559860,195.725647 204.023239,193.761719 203.285004,191.265884 
	C202.167221,187.486771 202.775238,183.202164 201.691986,179.405685 
	C201.191635,177.652115 198.534927,176.330124 196.585846,175.348724 
	C196.248718,175.178970 194.482605,177.638321 193.513351,178.981949 
	C192.067551,180.986130 190.983109,183.300629 189.321701,185.090164 
	C184.636154,190.136978 184.551514,190.057587 179.277405,185.956345 
	C179.017395,185.754150 178.748840,185.417938 178.471497,185.404312 
	C172.181854,185.095413 169.663895,177.384598 163.109207,177.563232 
	C162.738342,177.573334 162.399033,176.834564 161.959702,176.663422 
	C161.208832,176.370926 160.188065,175.849426 159.634018,176.127686 
	C156.696945,177.602798 154.858597,175.773468 152.463577,174.570587 
	C150.595901,173.632553 147.705002,171.662857 145.628113,175.392181 
	C144.765381,176.941345 142.415741,177.589432 141.032791,178.943909 
	C139.828552,180.123383 139.033035,181.720154 138.056900,183.132538 
	C138.417068,183.596634 138.777237,184.060730 139.137405,184.524841 
	C142.599762,179.635178 145.953369,180.754608 149.043976,184.109070 
	C149.920532,185.060471 150.211914,186.551025 150.771667,187.794312 
	C149.474182,187.998795 148.166779,188.408051 146.882217,188.345810 
	C145.766006,188.291733 144.675629,187.704376 142.447662,186.993210 
	C145.257751,192.393585 152.450577,193.598236 150.822845,200.163574 
	C140.125504,190.179703 129.396439,180.229538 118.741173,170.200958 
	C110.665939,162.600662 102.684776,154.900391 93.585815,146.217926 
	C93.585815,149.290253 93.582527,151.010040 93.586349,152.729828 
	C93.615936,166.052689 93.709206,179.375885 93.633392,192.698151 
	C93.614555,196.007202 93.367996,199.381485 92.674873,202.607346 
	C90.803116,211.318726 84.641350,217.107346 75.792503,217.847504 
	C69.698418,218.357254 63.518349,217.838913 57.377506,217.289139 
	C57.596249,216.531738 57.814194,216.265259 58.429596,215.998444 
	C60.258537,215.647446 61.716347,215.379227 63.116951,214.931885 
	C69.198074,212.989609 75.213341,210.819565 81.355217,209.098785 
	C84.133797,208.320282 87.860909,210.270630 89.018127,205.638336 
	C89.761940,202.660919 91.791412,199.823685 91.862175,196.890274 
	C92.179146,183.750366 92.018517,170.598450 91.973907,157.451050 
	C91.968994,156.001740 91.603256,154.553665 91.242691,151.920868 
	C87.728600,155.819748 87.313515,158.464706 87.663559,162.588074 
	C88.204132,168.955658 86.293915,175.536911 85.318214,182.011719 
	C85.267014,182.351456 84.238907,182.544006 83.528084,182.867691 
	C82.925346,182.095886 82.147430,181.526260 81.974625,180.810532 
	C80.685432,175.471008 79.761551,170.162064 82.922989,165.022629 
	C84.020035,163.239197 84.995247,161.219727 85.375351,159.186432 
	C86.533401,152.991531 87.374283,146.737305 88.451477,139.776962 
	C87.216988,139.680679 85.444649,138.981293 84.355286,139.562347 
	C81.045273,141.327911 77.920593,143.479523 74.870361,145.683716 
	C71.119957,148.393860 69.274437,151.945267 69.902672,156.821640 
	C70.207634,159.188751 70.333786,162.334442 69.064072,164.005585 
	C65.423065,168.797684 65.728386,174.873444 67.597290,178.677460 
	C70.351646,184.283752 69.494537,189.203644 68.969734,194.527054 
	C67.965332,204.715500 65.700302,207.447006 58.025139,207.532532 
	C58.020096,179.375031 58.024723,151.686157 58.324017,123.958321 
	C58.932755,123.514450 59.246819,123.109535 59.560890,122.704620 
	C59.050621,122.470657 58.540352,122.236687 58.022194,121.599586 
	C57.417355,119.456284 56.820408,117.716110 56.223465,115.975937 
M138.161636,153.845444 
	C137.829773,151.456345 138.248856,147.654114 137.000061,146.990509 
	C134.816666,145.830246 131.508789,147.026245 128.863998,146.410568 
	C127.068481,145.992615 125.581497,144.191711 123.992043,142.963333 
	C122.578598,141.870987 121.298836,140.582642 119.802917,139.626755 
	C118.429237,138.748978 116.845871,138.199341 115.354889,137.505142 
	C116.098961,135.988983 116.817162,134.459442 117.593971,132.960251 
	C118.469673,131.270187 119.398155,129.607468 120.303688,127.932869 
	C119.759361,127.545044 119.215034,127.157219 118.670700,126.769394 
	C117.446281,127.695404 116.290222,128.735962 114.979851,129.517944 
	C113.401421,130.459900 111.768913,131.555878 110.021889,131.915970 
	C107.062180,132.526001 103.021698,130.615585 102.904846,136.260773 
	C102.838287,139.476456 101.446236,142.667816 101.405121,145.879807 
	C101.378502,147.959503 102.091698,151.106842 103.544968,151.968536 
	C110.755722,156.244080 118.322685,159.918869 125.764153,163.805313 
	C126.069382,163.418686 126.374619,163.032043 126.679848,162.645401 
	C126.679848,165.205841 126.679848,167.766296 126.679848,169.490341 
	C129.746719,170.882706 132.521164,172.142319 135.731033,173.599594 
	C138.775406,172.056992 140.149200,164.378540 146.024185,169.787628 
	C147.483734,167.696167 148.728806,165.912033 150.670242,163.130066 
	C147.294815,163.330597 144.984787,163.467834 141.991455,163.645660 
	C141.991455,161.568237 142.383316,159.508698 141.865982,157.710754 
	C141.460754,156.302460 139.929535,155.218155 138.161636,153.845444 
M80.437309,106.940941 
	C76.858208,105.992546 73.315941,104.761398 69.675087,104.287155 
	C68.720436,104.162804 67.103004,106.225113 66.482574,107.596542 
	C66.145966,108.340584 66.968506,110.364456 67.777870,110.755173 
	C76.291962,114.865273 77.567680,122.865173 79.143738,130.856461 
	C79.374054,132.024277 81.136299,132.889954 82.189705,133.895432 
	C82.762268,132.730194 83.894798,131.524963 83.814896,130.406342 
	C83.357132,123.998352 86.623383,121.068756 92.641129,123.523033 
	C97.468834,125.491989 101.413132,126.108635 104.827751,119.863319 
	C105.904106,121.492065 106.402718,122.598335 107.232353,123.328484 
	C107.563240,123.619705 108.906166,123.309982 109.277977,122.855896 
	C109.673058,122.373390 109.722511,120.830956 109.478149,120.718605 
	C105.936722,119.090202 103.765205,114.948318 98.729546,115.933411 
	C91.307533,117.385323 91.242393,117.052338 89.385208,111.239655 
	C86.206268,109.822495 83.604477,108.662621 80.437309,106.940941 
M153.445938,51.714645 
	C153.214264,44.867855 147.901184,42.333927 142.835968,40.309994 
	C139.571869,39.005745 135.716217,39.541508 134.763901,44.367237 
	C134.235840,47.043068 133.654694,49.708424 133.268417,51.559364 
	C135.764282,52.505459 137.598557,53.216251 139.444962,53.894001 
	C140.338211,54.221886 141.269791,54.783581 142.157593,54.736862 
	C153.717606,54.128517 153.716415,54.105789 151.917953,63.215210 
	C155.573654,63.802246 159.972687,63.291626 162.543518,65.219246 
	C166.018112,67.824539 168.606796,66.871071 172.188828,65.126060 
	C170.496643,63.988503 168.804459,62.850941 166.974976,61.621086 
	C167.575821,60.295425 168.148148,59.032696 168.720474,57.769970 
	C162.550079,62.201977 159.220779,57.662533 155.622894,54.118290 
	C155.029572,53.533802 154.464706,52.920410 153.445938,51.714645 
M195.819717,166.844696 
	C192.721817,161.049011 187.804016,160.170471 184.070923,165.003830 
	C187.119705,166.527054 190.070953,168.171417 193.184555,169.406448 
	C193.770966,169.639038 195.004395,168.240372 195.819717,166.844696 
M200.800049,162.409393 
	C202.086090,161.557297 203.372131,160.705200 204.658173,159.853119 
	C203.767288,158.957138 202.582184,157.153839 202.038971,157.329971 
	C200.176056,157.934082 198.538162,159.232101 196.814468,160.265564 
	C197.005829,160.671890 197.197189,161.078217 197.388565,161.484543 
	C198.299179,161.708786 199.209808,161.933029 200.800049,162.409393 
M87.843323,104.497612 
	C86.075325,103.118057 84.307327,101.738503 82.539330,100.358948 
	C82.110611,101.319336 81.681885,102.279716 81.253166,103.240105 
	C83.395737,103.882927 85.538300,104.525742 87.843323,104.497612 
M99.958626,75.761765 
	C100.741936,75.608795 101.687798,75.674995 102.266312,75.245911 
	C102.948692,74.739792 103.609306,73.841309 103.706940,73.042938 
	C103.767647,72.546463 102.644089,71.378006 102.268723,71.463409 
	C101.448463,71.650040 100.603653,72.322739 100.078087,73.027466 
	C99.637390,73.618408 99.635056,74.536278 99.958626,75.761765 
M29.416229,116.639168 
	C29.607763,115.319672 29.799297,114.000175 29.990831,112.680679 
	C29.269342,112.750481 28.547853,112.820274 27.826363,112.890076 
	C28.132767,114.133278 28.439171,115.376480 29.416229,116.639168 
M55.490353,93.858376 
	C55.793533,93.431282 56.096714,93.004181 56.399895,92.577087 
	C55.951229,92.463333 55.502563,92.349579 55.053898,92.235832 
	C55.000244,92.735764 54.946590,93.235687 55.490353,93.858376 
z"/>
<path fill="#FDFCFA" opacity="1.000000" stroke="none" 
	d="
M167.956055,119.985329 
	C167.667953,127.010414 167.379837,134.035507 166.839767,141.653320 
	C166.821060,142.843613 167.054321,143.441147 167.287582,144.038696 
	C167.515747,144.776505 167.743912,145.514328 167.684448,146.870346 
	C167.903900,149.638718 168.410965,151.788879 168.918015,153.939041 
	C169.578003,153.908325 170.237991,153.877609 170.897964,153.846909 
	C171.164520,152.342789 171.431091,150.838684 171.697647,149.334579 
	C172.583679,146.695923 173.469727,144.057281 174.793762,141.148026 
	C175.325806,140.797562 175.512238,140.690216 175.498062,140.642532 
	C175.433090,140.424011 175.312012,140.222153 175.211060,140.014328 
	C176.568726,137.130280 177.926407,134.246231 179.829681,131.025772 
	C180.584641,130.128296 180.794037,129.567261 181.003418,129.006210 
	C181.003418,129.006210 181.000000,129.000000 181.246246,128.837173 
	C181.610123,128.310898 181.727753,127.947441 181.845398,127.583992 
	C182.061462,127.130936 182.277527,126.677872 182.972260,125.961456 
	C183.588730,125.345444 183.726486,124.992783 183.864243,124.640121 
	C187.335831,120.425430 190.807419,116.210739 194.705811,112.163712 
	C195.425537,113.229935 195.718460,114.128494 196.011383,115.027054 
	C191.877319,122.205284 187.743240,129.383499 183.071533,136.965027 
	C181.726791,139.592621 180.919708,141.816925 180.112640,144.041229 
	C179.363922,146.451767 178.615204,148.862305 177.415253,151.704987 
	C176.601486,153.746063 176.238953,155.355011 175.876419,156.963959 
	C175.513824,159.366699 175.151230,161.769424 174.367767,164.672623 
	C173.938843,166.773666 173.930786,168.374268 173.922729,169.974854 
	C173.952530,170.732315 173.982300,171.489761 173.562500,172.609161 
	C172.441162,172.968018 171.769379,172.964920 171.097610,172.961823 
	C157.542542,160.034241 144.026123,147.065811 130.418808,134.193466 
	C121.380898,125.643684 112.213066,117.231262 102.787247,108.624771 
	C102.471100,108.492180 102.432899,108.469963 102.335075,108.239014 
	C101.942291,107.865128 101.647324,107.722191 101.352493,107.557434 
	C101.352615,107.535606 101.378654,107.499496 101.378654,107.499496 
	C96.013710,101.557640 88.944519,98.942612 80.677773,97.405785 
	C81.755547,96.182228 82.355232,95.265953 83.167297,94.614349 
	C98.880363,82.006149 114.680199,69.504860 130.292709,56.773731 
	C133.029373,54.542130 134.672989,55.052608 137.093948,57.014275 
	C150.543488,67.912224 164.108414,78.667755 177.855133,90.088356 
	C179.067474,90.517288 180.058533,90.329887 181.049576,90.142487 
	C184.600662,87.700760 188.151749,85.259026 192.233551,82.504128 
	C193.504639,81.772606 194.244995,81.354263 195.287659,80.939560 
	C196.481766,80.528992 197.373566,80.114792 198.392883,79.653763 
	C198.520416,79.606949 198.673462,79.382446 198.953766,79.170105 
	C199.498871,77.304764 199.763687,75.651764 200.028503,73.998772 
	C201.690186,74.659698 203.351868,75.320633 205.013550,75.981567 
	C205.152969,76.531761 205.292374,77.081955 205.431778,77.632149 
	C203.850845,78.453995 202.269913,79.275833 200.688980,80.097679 
	C200.996338,80.615761 201.303696,81.133850 201.611053,81.651939 
	C204.883469,80.784225 208.133118,79.808891 211.441177,79.109795 
	C212.533142,78.879044 213.775833,79.361435 215.009430,79.888008 
	C203.941391,83.469620 193.133957,87.355850 183.476135,95.099022 
	C182.570404,95.513969 182.283310,95.795891 181.996216,96.077820 
	C175.494537,101.832184 172.012238,109.445473 168.488190,117.690018 
	C168.017578,118.712570 167.986816,119.348946 167.956055,119.985329 
M122.938576,80.539192 
	C122.938576,80.539192 122.866516,80.961105 122.511574,80.999893 
	C122.511574,80.999893 122.167458,81.095139 121.523216,81.293320 
	C121.035698,82.224442 120.548172,83.155556 119.854736,84.871399 
	C119.484215,86.819221 119.113693,88.767036 118.676003,91.067970 
	C123.374664,91.067970 127.257446,91.067970 131.901138,90.849434 
	C133.072113,86.135063 134.598557,81.403252 130.446732,76.816650 
	C128.554962,77.505882 126.663177,78.195114 124.206512,78.969383 
	C123.826569,79.356514 123.446617,79.743645 122.938576,80.539192 
M148.479889,87.785568 
	C148.328186,87.522308 148.176468,87.259041 147.750656,86.392204 
	C146.826767,84.925751 145.902878,83.459290 144.779266,81.326370 
	C141.779160,79.882645 138.779068,78.438919 135.778961,76.995201 
	C135.241302,79.711166 134.622086,82.414589 134.201645,85.148575 
	C134.001953,86.447113 133.974045,87.852997 134.272461,89.114662 
	C134.432938,89.793098 135.448029,90.269402 136.948868,91.137512 
	C139.724701,91.192879 142.549500,91.566536 145.252884,91.150772 
	C146.372528,90.978584 147.232285,89.116493 148.479889,87.785568 
M130.198624,94.855408 
	C126.469353,95.230904 122.740089,95.606400 118.727951,96.424782 
	C118.651138,96.582214 118.574326,96.739639 118.018753,97.035461 
	C118.170815,97.725586 118.322868,98.415710 118.640289,99.733284 
	C118.742836,100.151436 118.845375,100.569580 118.746681,101.888336 
	C118.746681,104.137001 118.746681,106.385666 118.746681,108.744438 
	C123.345612,108.744438 127.368309,108.744438 131.822830,108.744438 
	C131.618362,106.912498 131.458786,105.482864 131.615768,103.255890 
	C131.674820,101.533012 131.733871,99.810135 132.354568,97.730644 
	C131.946106,96.798210 131.537659,95.865776 130.198624,94.855408 
M135.426315,107.810165 
	C139.582062,108.390175 143.737808,108.970192 148.068954,109.574684 
	C148.068954,106.246758 148.068954,104.116257 148.280045,101.145798 
	C147.522949,99.160149 150.292526,95.853065 145.158264,94.909897 
	C141.830017,94.909897 138.501755,94.909897 134.900436,94.909897 
	C135.136597,98.247307 135.307877,100.667862 135.275330,103.862572 
	C135.375488,104.908852 135.475632,105.955139 135.426315,107.810165 
z"/>
<path fill="#80653E" opacity="1.000000" stroke="none" 
	d="
M150.839462,200.148438 
	C152.450577,193.598236 145.257751,192.393585 142.447662,186.993210 
	C144.675629,187.704376 145.766006,188.291733 146.882217,188.345810 
	C148.166779,188.408051 149.474182,187.998795 150.771667,187.794312 
	C150.211914,186.551025 149.920532,185.060471 149.043976,184.109070 
	C145.953369,180.754608 142.599762,179.635178 139.137405,184.524841 
	C138.777237,184.060730 138.417068,183.596634 138.056900,183.132538 
	C139.033035,181.720154 139.828552,180.123383 141.032791,178.943909 
	C142.415741,177.589432 144.765381,176.941345 145.628113,175.392181 
	C147.705002,171.662857 150.595901,173.632553 152.463577,174.570587 
	C154.858597,175.773468 156.696945,177.602798 159.634018,176.127686 
	C160.188065,175.849426 161.208832,176.370926 161.959702,176.663422 
	C162.399033,176.834564 162.738342,177.573334 163.109207,177.563232 
	C169.663895,177.384598 172.181854,185.095413 178.471497,185.404312 
	C178.748840,185.417938 179.017395,185.754150 179.277405,185.956345 
	C184.551514,190.057587 184.636154,190.136978 189.321701,185.090164 
	C190.983109,183.300629 192.067551,180.986130 193.513351,178.981949 
	C194.482605,177.638321 196.248718,175.178970 196.585846,175.348724 
	C198.534927,176.330124 201.191635,177.652115 201.691986,179.405685 
	C202.775238,183.202164 202.167221,187.486771 203.285004,191.265884 
	C204.023239,193.761719 206.559860,195.725647 208.644135,198.341248 
	C209.270737,200.154785 209.544495,201.554810 209.818253,202.954834 
	C209.683197,203.491379 209.548157,204.027908 208.991119,204.930084 
	C208.498688,205.645737 208.428268,205.995789 208.357849,206.345825 
	C208.357864,206.345825 208.444717,206.340164 208.078644,206.283737 
	C205.748886,207.397018 203.749603,208.511642 201.830704,209.750732 
	C199.550568,211.223099 197.872208,212.062408 196.718689,208.331512 
	C196.242889,206.792664 193.923553,205.823822 192.442719,204.595734 
	C191.995193,204.889130 191.547684,205.182526 191.100159,205.475922 
	C191.277588,208.003799 191.455017,210.531677 191.669037,213.580872 
	C189.944122,214.270432 187.796707,215.973145 186.075592,215.616821 
	C183.565155,215.097061 179.900253,213.563782 179.287186,211.644806 
	C177.005432,204.502747 173.467987,202.109314 165.673325,203.123474 
	C162.979004,203.474014 160.068527,202.308655 157.278442,201.731094 
	C155.109650,201.282135 152.974487,200.670776 150.824371,200.131592 
	C150.824371,200.131592 150.856079,200.133286 150.839462,200.148438 
z"/>
<path fill="#80653E" opacity="1.000000" stroke="none" 
	d="
M194.985367,80.935913 
	C194.244995,81.354263 193.504639,81.772606 192.447998,82.244186 
	C191.353149,79.835106 190.122314,79.281822 187.324509,79.836494 
	C184.722855,80.352303 180.849426,80.177345 179.235565,78.584450 
	C176.924011,76.302910 176.131439,72.786324 178.648575,69.065819 
	C179.714569,67.490204 178.296982,64.234329 178.013550,60.996422 
	C177.968964,59.762264 177.919037,59.273819 177.869110,58.785378 
	C177.723083,56.369118 177.577057,53.952862 177.167297,50.818954 
	C175.127884,44.444115 175.991562,43.060173 181.588654,42.961197 
	C186.538330,42.873676 191.491669,43.002220 196.441879,42.930573 
	C200.564957,42.870899 201.901962,44.590775 200.365524,48.490570 
	C200.072067,49.235435 200.090622,50.103230 199.854965,51.184616 
	C199.655411,51.627853 199.566147,51.800781 199.129593,52.128021 
	C198.746033,61.315704 198.709747,70.349075 198.673462,79.382446 
	C198.673462,79.382446 198.520416,79.606949 198.060333,79.468773 
	C196.728622,79.865700 195.856995,80.400803 194.985367,80.935913 
z"/>
<path fill="#7F653E" opacity="1.000000" stroke="none" 
	d="
M150.954773,200.441498 
	C152.974487,200.670776 155.109650,201.282135 157.278442,201.731094 
	C160.068527,202.308655 162.979004,203.474014 165.673325,203.123474 
	C173.467987,202.109314 177.005432,204.502747 179.287186,211.644806 
	C179.900253,213.563782 183.565155,215.097061 186.075592,215.616821 
	C187.796707,215.973145 189.944122,214.270432 191.669037,213.580872 
	C191.455017,210.531677 191.277588,208.003799 191.100159,205.475922 
	C191.547684,205.182526 191.995193,204.889130 192.442719,204.595734 
	C193.923553,205.823822 196.242889,206.792664 196.718689,208.331512 
	C197.872208,212.062408 199.550568,211.223099 201.830704,209.750732 
	C203.749603,208.511642 205.748886,207.397018 208.084412,206.326874 
	C204.024963,216.046036 193.946823,220.481323 181.747223,218.657166 
	C169.068451,216.761337 159.430710,209.928452 150.954773,200.441498 
M172.121216,209.592957 
	C172.361511,211.057861 172.601807,212.522751 172.842117,213.987656 
	C173.652985,213.653275 174.463852,213.318909 175.274734,212.984528 
	C174.438187,211.757919 173.601639,210.531296 172.121216,209.592957 
z"/>
<path fill="#6A512B" opacity="1.000000" stroke="none" 
	d="
M58.029346,123.997276 
	C58.024723,151.686157 58.020096,179.375031 58.014214,207.976471 
	C58.019352,211.258942 58.025749,213.628860 58.032139,215.998779 
	C57.814194,216.265259 57.596249,216.531738 57.144119,216.916595 
	C56.650829,215.269913 56.168911,213.505295 56.165710,211.739807 
	C56.108398,180.129288 56.109055,148.518677 56.160370,116.442017 
	C56.820408,117.716110 57.417355,119.456284 58.013012,121.931946 
	C58.017601,123.110710 58.023472,123.553993 58.029346,123.997276 
z"/>
<path fill="#76603D" opacity="1.000000" stroke="none" 
	d="
M209.988281,202.571655 
	C209.544495,201.554810 209.270737,200.154785 208.995453,198.377686 
	C208.994614,181.679550 208.995316,165.358475 208.998901,148.576385 
	C209.666412,148.569382 210.913162,149.025269 210.911728,149.477219 
	C210.857635,166.565857 210.691696,183.654190 210.519958,200.742340 
	C210.515091,201.225540 210.283951,201.706482 209.988281,202.571655 
z"/>
<path fill="#8F7C5F" opacity="1.000000" stroke="none" 
	d="
M199.965240,50.914310 
	C200.090622,50.103230 200.072067,49.235435 200.365524,48.490570 
	C201.901962,44.590775 200.564957,42.870899 196.441879,42.930573 
	C191.491669,43.002220 186.538330,42.873676 181.588654,42.961197 
	C175.991562,43.060173 175.127884,44.444115 176.966187,50.480118 
	C176.222382,48.631844 174.724335,46.350231 174.893845,44.200085 
	C174.981995,43.081905 177.963928,41.462666 179.726135,41.341476 
	C185.156097,40.968071 190.639359,41.424690 196.080536,41.144127 
	C201.054459,40.887661 203.191925,42.929459 202.570496,48.410389 
	C201.574417,49.641098 200.769821,50.277702 199.965240,50.914310 
z"/>
<path fill="#8F7C5F" opacity="1.000000" stroke="none" 
	d="
M198.953766,79.170105 
	C198.709747,70.349075 198.746033,61.315704 199.235260,52.498215 
	C199.787079,53.476143 199.885956,54.238186 199.984833,55.000229 
	C199.936554,61.026173 199.888260,67.052116 199.934235,73.538422 
	C199.763687,75.651764 199.498871,77.304764 198.953766,79.170105 
z"/>
<path fill="#FDFCFA" opacity="1.000000" stroke="none" 
	d="
M227.994202,77.627213 
	C226.255844,78.326530 224.510574,78.652412 222.380890,78.924072 
	C222.810867,77.302681 223.625290,75.735512 224.439713,74.168350 
	C225.622253,75.196823 226.804794,76.225304 227.994202,77.627213 
z"/>
<path fill="#FDFCFA" opacity="1.000000" stroke="none" 
	d="
M236.948517,77.680405 
	C235.265198,77.980965 233.553543,77.926468 231.419189,77.800171 
	C232.784164,74.846931 234.667633,73.373878 236.948517,77.680405 
z"/>
<path fill="#FDFCFA" opacity="1.000000" stroke="none" 
	d="
M200.369949,54.951027 
	C199.885956,54.238186 199.787079,53.476143 199.582520,52.343903 
	C199.566147,51.800781 199.655411,51.627853 199.854950,51.184616 
	C200.769821,50.277702 201.574417,49.641098 202.620026,48.791626 
	C202.159058,50.686451 201.457062,52.794136 200.369949,54.951027 
z"/>
<path fill="#FDFCFA" opacity="1.000000" stroke="none" 
	d="
M236.174500,81.936783 
	C236.135361,80.841599 236.488815,79.765923 236.904282,78.355667 
	C237.919617,78.594559 238.872955,79.168030 239.826279,79.741493 
	C238.739883,80.479767 237.653488,81.218033 236.174500,81.936783 
z"/>
<path fill="#EDE5D4" opacity="1.000000" stroke="none" 
	d="
M195.030426,151.496796 
	C193.776566,152.221756 192.521103,152.590012 191.265640,152.958267 
	C191.114182,152.596115 190.962723,152.233978 190.811264,151.871841 
	C191.976898,150.955887 193.142517,150.039932 194.651321,149.062439 
	C195.005936,149.713943 195.017380,150.427032 195.030426,151.496796 
z"/>
<path fill="#EDE5D4" opacity="1.000000" stroke="none" 
	d="
M205.704987,147.999283 
	C205.211044,148.658173 204.380707,149.292877 203.241669,149.801971 
	C203.744827,149.109268 204.556717,148.542175 205.704987,147.999283 
z"/>
<path fill="#FDFCFA" opacity="1.000000" stroke="none" 
	d="
M220.017746,79.092728 
	C219.645660,79.562988 218.950073,80.003975 218.151154,80.156494 
	C218.596619,79.599838 219.145447,79.331642 220.017746,79.092728 
z"/>
<path fill="#EDE5D4" opacity="1.000000" stroke="none" 
	d="
M200.797729,149.731049 
	C200.461609,150.264908 199.925308,150.562225 199.166153,150.766769 
	C199.494720,150.280823 200.046143,149.887665 200.797729,149.731049 
z"/>
<path fill="#8F7C5F" opacity="1.000000" stroke="none" 
	d="
M177.574097,58.959133 
	C177.919037,59.273819 177.968964,59.762264 178.006821,60.619995 
	C177.350708,60.643749 176.706665,60.298218 176.000153,59.667011 
	C176.384827,59.298519 176.831970,59.215702 177.574097,58.959133 
z"/>
<path fill="#8F7C5F" opacity="1.000000" stroke="none" 
	d="
M165.079330,50.618546 
	C164.486633,50.504559 163.788498,50.105103 163.039978,49.379192 
	C163.651031,49.479519 164.312469,49.906296 165.079330,50.618546 
z"/>
<path fill="#EDE5D4" opacity="1.000000" stroke="none" 
	d="
M195.831757,148.746124 
	C196.115326,148.141144 196.754135,147.621124 197.707458,147.088409 
	C197.410309,147.660828 196.798630,148.245956 195.831757,148.746124 
z"/>
<path fill="#7F653E" opacity="1.000000" stroke="none" 
	d="
M208.595734,206.202301 
	C208.428268,205.995789 208.498688,205.645737 208.803070,205.143555 
	C208.969238,205.347183 208.901443,205.702988 208.595734,206.202301 
z"/>
<path fill="#80653E" opacity="1.000000" stroke="none" 
	d="
M58.429600,215.998444 
	C58.025749,213.628860 58.019352,211.258942 58.023880,208.445099 
	C65.700302,207.447006 67.965332,204.715500 68.969734,194.527054 
	C69.494537,189.203644 70.351646,184.283752 67.597290,178.677460 
	C65.728386,174.873444 65.423065,168.797684 69.064072,164.005585 
	C70.333786,162.334442 70.207634,159.188751 69.902672,156.821640 
	C69.274437,151.945267 71.119957,148.393860 74.870361,145.683716 
	C77.920593,143.479523 81.045273,141.327911 84.355286,139.562347 
	C85.444649,138.981293 87.216988,139.680679 88.451477,139.776962 
	C87.374283,146.737305 86.533401,152.991531 85.375351,159.186432 
	C84.995247,161.219727 84.020035,163.239197 82.922989,165.022629 
	C79.761551,170.162064 80.685432,175.471008 81.974625,180.810532 
	C82.147430,181.526260 82.925346,182.095886 83.528084,182.867691 
	C84.238907,182.544006 85.267014,182.351456 85.318214,182.011719 
	C86.293915,175.536911 88.204132,168.955658 87.663559,162.588074 
	C87.313515,158.464706 87.728600,155.819748 91.242691,151.920868 
	C91.603256,154.553665 91.968994,156.001740 91.973907,157.451050 
	C92.018517,170.598450 92.179146,183.750366 91.862175,196.890274 
	C91.791412,199.823685 89.761940,202.660919 89.018127,205.638336 
	C87.860909,210.270630 84.133797,208.320282 81.355217,209.098785 
	C75.213341,210.819565 69.198074,212.989609 63.116951,214.931885 
	C61.716347,215.379227 60.258537,215.647446 58.429600,215.998444 
z"/>
<path fill="#80653E" opacity="1.000000" stroke="none" 
	d="
M138.530106,153.917664 
	C139.929535,155.218155 141.460754,156.302460 141.865982,157.710754 
	C142.383316,159.508698 141.991455,161.568237 141.991455,163.645660 
	C144.984787,163.467834 147.294815,163.330597 150.670242,163.130066 
	C148.728806,165.912033 147.483734,167.696167 146.024185,169.787628 
	C140.149200,164.378540 138.775406,172.056992 135.731033,173.599594 
	C132.521164,172.142319 129.746719,170.882706 126.679848,169.490341 
	C126.679848,167.766296 126.679848,165.205841 126.679848,162.645401 
	C126.374619,163.032043 126.069382,163.418686 125.764153,163.805313 
	C118.322685,159.918869 110.755722,156.244080 103.544968,151.968536 
	C102.091698,151.106842 101.378502,147.959503 101.405121,145.879807 
	C101.446236,142.667816 102.838287,139.476456 102.904846,136.260773 
	C103.021698,130.615585 107.062180,132.526001 110.021889,131.915970 
	C111.768913,131.555878 113.401421,130.459900 114.979851,129.517944 
	C116.290222,128.735962 117.446281,127.695404 118.670700,126.769394 
	C119.215034,127.157219 119.759361,127.545044 120.303688,127.932869 
	C119.398155,129.607468 118.469673,131.270187 117.593971,132.960251 
	C116.817162,134.459442 116.098961,135.988983 115.354889,137.505142 
	C116.845871,138.199341 118.429237,138.748978 119.802917,139.626755 
	C121.298836,140.582642 122.578598,141.870987 123.992043,142.963333 
	C125.581497,144.191711 127.068481,145.992615 128.863998,146.410568 
	C131.508789,147.026245 134.816666,145.830246 137.000061,146.990509 
	C138.248856,147.654114 137.829773,151.456345 138.530106,153.917664 
z"/>
<path fill="#80653E" opacity="1.000000" stroke="none" 
	d="
M80.720001,107.221848 
	C83.604477,108.662621 86.206268,109.822495 89.385208,111.239655 
	C91.242393,117.052338 91.307533,117.385323 98.729546,115.933411 
	C103.765205,114.948318 105.936722,119.090202 109.478149,120.718605 
	C109.722511,120.830956 109.673058,122.373390 109.277977,122.855896 
	C108.906166,123.309982 107.563240,123.619705 107.232353,123.328484 
	C106.402718,122.598335 105.904106,121.492065 104.827751,119.863319 
	C101.413132,126.108635 97.468834,125.491989 92.641129,123.523033 
	C86.623383,121.068756 83.357132,123.998352 83.814896,130.406342 
	C83.894798,131.524963 82.762268,132.730194 82.189705,133.895432 
	C81.136299,132.889954 79.374054,132.024277 79.143738,130.856461 
	C77.567680,122.865173 76.291962,114.865273 67.777870,110.755173 
	C66.968506,110.364456 66.145966,108.340584 66.482574,107.596542 
	C67.103004,106.225113 68.720436,104.162804 69.675087,104.287155 
	C73.315941,104.761398 76.858208,105.992546 80.720001,107.221848 
z"/>
<path fill="#80653E" opacity="1.000000" stroke="none" 
	d="
M153.666321,52.017513 
	C154.464706,52.920410 155.029572,53.533802 155.622894,54.118290 
	C159.220779,57.662533 162.550079,62.201977 168.720474,57.769970 
	C168.148148,59.032696 167.575821,60.295425 166.974976,61.621086 
	C168.804459,62.850941 170.496643,63.988503 172.188828,65.126060 
	C168.606796,66.871071 166.018112,67.824539 162.543518,65.219246 
	C159.972687,63.291626 155.573654,63.802246 151.917953,63.215210 
	C153.716415,54.105789 153.717606,54.128517 142.157593,54.736862 
	C141.269791,54.783581 140.338211,54.221886 139.444962,53.894001 
	C137.598557,53.216251 135.764282,52.505459 133.268417,51.559364 
	C133.654694,49.708424 134.235840,47.043068 134.763901,44.367237 
	C135.716217,39.541508 139.571869,39.005745 142.835968,40.309994 
	C147.901184,42.333927 153.214264,44.867855 153.666321,52.017513 
z"/>
<path fill="#80653E" opacity="1.000000" stroke="none" 
	d="
M195.879486,167.219574 
	C195.004395,168.240372 193.770966,169.639038 193.184555,169.406448 
	C190.070953,168.171417 187.119705,166.527054 184.070923,165.003830 
	C187.804016,160.170471 192.721817,161.049011 195.879486,167.219574 
z"/>
<path fill="#80653E" opacity="1.000000" stroke="none" 
	d="
M200.460236,162.283325 
	C199.209808,161.933029 198.299179,161.708786 197.388565,161.484543 
	C197.197189,161.078217 197.005829,160.671890 196.814468,160.265564 
	C198.538162,159.232101 200.176056,157.934082 202.038971,157.329971 
	C202.582184,157.153839 203.767288,158.957138 204.658173,159.853119 
	C203.372131,160.705200 202.086090,161.557297 200.460236,162.283325 
z"/>
<path fill="#80653E" opacity="1.000000" stroke="none" 
	d="
M87.762100,104.833084 
	C85.538300,104.525742 83.395737,103.882927 81.253166,103.240105 
	C81.681885,102.279716 82.110611,101.319336 82.539330,100.358948 
	C84.307327,101.738503 86.075325,103.118057 87.762100,104.833084 
z"/>
<path fill="#F6F2E9" opacity="1.000000" stroke="none" 
	d="
M196.288452,114.847824 
	C195.718460,114.128494 195.425537,113.229935 195.003571,111.996429 
	C196.817871,110.105186 198.761200,108.548897 200.704529,106.992599 
	C201.145477,107.468834 201.586426,107.945061 202.027374,108.421295 
	C200.206757,110.503731 198.386139,112.586166 196.288452,114.847824 
z"/>
<path fill="#80653E" opacity="1.000000" stroke="none" 
	d="
M102.486366,108.473915 
	C100.780228,113.012672 98.575645,113.402824 95.050400,109.382706 
	C95.000000,109.000000 95.000916,108.999084 95.000916,108.999084 
	C96.867744,108.608154 98.734581,108.217232 100.990036,107.662903 
	C101.378654,107.499496 101.352615,107.535606 101.358780,107.867119 
	C101.720932,108.289070 102.076920,108.379517 102.432899,108.469955 
	C102.432899,108.469963 102.471100,108.492180 102.486366,108.473915 
z"/>
<path fill="#F6F2E9" opacity="1.000000" stroke="none" 
	d="
M171.380585,149.505219 
	C171.431091,150.838684 171.164520,152.342789 170.897964,153.846909 
	C170.237991,153.877609 169.578003,153.908325 168.918015,153.939041 
	C168.410965,151.788879 167.903900,149.638718 167.652344,147.259918 
	C168.959747,147.912796 170.011642,148.794327 171.380585,149.505219 
z"/>
<path fill="#80653E" opacity="1.000000" stroke="none" 
	d="
M99.698624,75.535583 
	C99.635056,74.536278 99.637390,73.618408 100.078087,73.027466 
	C100.603653,72.322739 101.448463,71.650040 102.268723,71.463409 
	C102.644089,71.378006 103.767647,72.546463 103.706940,73.042938 
	C103.609306,73.841309 102.948692,74.739792 102.266312,75.245911 
	C101.687798,75.674995 100.741936,75.608795 99.698624,75.535583 
z"/>
<path fill="#80653E" opacity="1.000000" stroke="none" 
	d="
M29.080902,116.629425 
	C28.439171,115.376480 28.132767,114.133278 27.826363,112.890076 
	C28.547853,112.820274 29.269342,112.750481 29.990831,112.680679 
	C29.799297,114.000175 29.607763,115.319672 29.080902,116.629425 
z"/>
<path fill="#F6F2E9" opacity="1.000000" stroke="none" 
	d="
M180.397186,143.831833 
	C180.919708,141.816925 181.726791,139.592621 182.827408,137.201294 
	C182.307877,139.230301 181.494812,141.426376 180.397186,143.831833 
z"/>
<path fill="#80653E" opacity="1.000000" stroke="none" 
	d="
M94.999542,109.000458 
	C93.739700,108.574585 92.480309,108.148247 91.220932,107.721909 
	C91.524689,107.227364 91.828445,106.732811 92.132202,106.238251 
	C93.060066,106.918488 93.987946,107.598717 94.958366,108.639023 
	C95.000916,108.999084 95.000000,109.000000 94.999542,109.000458 
z"/>
<path fill="#F6F2E9" opacity="1.000000" stroke="none" 
	d="
M174.126343,169.675079 
	C173.930786,168.374268 173.938843,166.773666 174.265717,165.070648 
	C174.499664,166.437241 174.414810,167.906281 174.126343,169.675079 
z"/>
<path fill="#F6F2E9" opacity="1.000000" stroke="none" 
	d="
M176.143738,156.741302 
	C176.238953,155.355011 176.601486,153.746063 177.263062,152.051865 
	C177.178436,153.483948 176.794754,155.001297 176.143738,156.741302 
z"/>
<path fill="#80653E" opacity="1.000000" stroke="none" 
	d="
M55.191643,93.796997 
	C54.946590,93.235687 55.000244,92.735764 55.053898,92.235832 
	C55.502563,92.349579 55.951229,92.463333 56.399895,92.577087 
	C56.096714,93.004181 55.793533,93.431282 55.191643,93.796997 
z"/>
<path fill="#F4F0E7" opacity="1.000000" stroke="none" 
	d="
M180.662155,90.198761 
	C180.058533,90.329887 179.067474,90.517288 178.028503,90.377487 
	C178.745285,90.118538 179.510010,90.186783 180.662155,90.198761 
z"/>
<path fill="#F6F2E9" opacity="1.000000" stroke="none" 
	d="
M171.215027,173.265900 
	C171.769379,172.964920 172.441162,172.968018 173.448639,172.973846 
	C173.722733,173.545746 173.661102,174.114899 173.599487,174.684067 
	C172.843811,174.312714 172.088120,173.941360 171.215027,173.265900 
z"/>
<path fill="#F6F2E9" opacity="1.000000" stroke="none" 
	d="
M167.403656,143.784271 
	C167.054321,143.441147 166.821060,142.843613 166.801193,142.120392 
	C167.182968,142.506424 167.351349,143.018143 167.403656,143.784271 
z"/>
<path fill="#80653E" opacity="1.000000" stroke="none" 
	d="
M58.324017,123.958321 
	C58.023472,123.553993 58.017601,123.110710 58.020905,122.335068 
	C58.540352,122.236687 59.050621,122.470657 59.560890,122.704620 
	C59.246819,123.109535 58.932755,123.514450 58.324017,123.958321 
z"/>
<path fill="#F6F2E9" opacity="1.000000" stroke="none" 
	d="
M168.163910,119.792465 
	C167.986816,119.348946 168.017578,118.712570 168.305054,118.022354 
	C168.498428,118.512215 168.435104,119.055916 168.163910,119.792465 
z"/>
<path fill="#F6F2E9" opacity="1.000000" stroke="none" 
	d="
M180.750076,129.164307 
	C180.794037,129.567261 180.584641,130.128296 180.090820,130.814240 
	C180.036499,130.400223 180.266617,129.861313 180.750076,129.164307 
z"/>
<path fill="#F6F2E9" opacity="1.000000" stroke="none" 
	d="
M175.057129,140.223785 
	C175.312012,140.222153 175.433090,140.424011 175.498062,140.642532 
	C175.512238,140.690216 175.325806,140.797562 175.047729,140.914520 
	C174.876846,140.778824 174.890030,140.606033 175.057129,140.223785 
z"/>
<path fill="#F6F2E9" opacity="1.000000" stroke="none" 
	d="
M181.601440,127.746628 
	C181.727753,127.947441 181.610123,128.310898 181.249161,128.838013 
	C181.123062,128.637543 181.240280,128.273407 181.601440,127.746628 
z"/>
<path fill="#F6F2E9" opacity="1.000000" stroke="none" 
	d="
M183.615387,124.786850 
	C183.726486,124.992783 183.588730,125.345444 183.196564,125.840416 
	C183.083618,125.633018 183.225067,125.283302 183.615387,124.786850 
z"/>
<path fill="#F4F0E7" opacity="1.000000" stroke="none" 
	d="
M182.317490,96.095566 
	C182.283310,95.795891 182.570404,95.513969 183.167358,95.203506 
	C183.197739,95.487747 182.918259,95.800537 182.317490,96.095566 
z"/>
<path fill="#C59967" opacity="1.000000" stroke="none" 
	d="
M136.077499,90.836914 
	C135.448029,90.269402 134.432938,89.793098 134.272461,89.114662 
	C133.974045,87.852997 134.001953,86.447113 134.201645,85.148575 
	C134.622086,82.414589 135.241302,79.711166 135.778961,76.995201 
	C138.779068,78.438919 141.779160,79.882645 144.612976,81.887054 
	C144.721039,89.013451 144.719574,89.003532 137.326981,90.095680 
	C136.883667,90.161179 136.492783,90.581635 136.077499,90.836914 
z"/>
<path fill="#C1915A" opacity="1.000000" stroke="none" 
	d="
M122.167465,81.095139 
	C122.167458,81.095139 122.511574,80.999893 123.023544,80.958405 
	C123.969696,80.483521 124.403870,80.050117 124.836136,79.432266 
	C124.834229,79.247833 124.771400,78.884338 124.771400,78.884338 
	C126.663177,78.195114 128.554962,77.505882 130.804962,77.321091 
	C131.088348,80.550766 131.013504,83.276016 130.678650,86.251877 
	C129.000610,90.530357 127.017929,91.049454 124.463669,87.861275 
	C123.283272,86.387932 122.590439,84.523964 121.769852,82.549744 
	C121.964592,81.873306 122.066025,81.484222 122.167465,81.095139 
z"/>
<path fill="#957143" opacity="1.000000" stroke="none" 
	d="
M146.043167,95.175949 
	C150.292526,95.853065 147.522949,99.160149 147.821625,101.618927 
	C143.960175,104.991730 140.431961,107.590797 135.575790,107.001419 
	C135.475632,105.955139 135.375488,104.908852 135.695312,103.399979 
	C139.424576,100.350243 142.733871,97.763100 146.043167,95.175949 
z"/>
<path fill="#937043" opacity="1.000000" stroke="none" 
	d="
M131.792938,98.087257 
	C131.733871,99.810135 131.674820,101.533012 131.172607,103.771820 
	C129.378494,108.433693 126.889465,108.850281 123.801765,106.175049 
	C122.021835,104.632896 120.555435,102.728874 118.947914,100.987732 
	C118.845375,100.569580 118.742836,100.151436 118.697800,99.060989 
	C118.669388,97.891487 118.583450,97.394279 118.497520,96.897072 
	C118.574326,96.739639 118.651138,96.582214 119.208504,96.266129 
	C122.975853,98.137733 124.071838,103.611443 129.297241,102.566505 
	C129.963730,100.851341 130.527145,99.401443 131.259644,98.019119 
	C131.428741,98.086685 131.792938,98.087257 131.792938,98.087257 
z"/>
<path fill="#AF895C" opacity="1.000000" stroke="none" 
	d="
M131.090561,97.951553 
	C130.527145,99.401443 129.963730,100.851341 129.297241,102.566505 
	C124.071838,103.611443 122.975853,98.137733 119.349937,96.044693 
	C122.740089,95.606400 126.469353,95.230904 130.671265,95.273422 
	C131.126129,96.444801 131.108337,97.198181 131.090561,97.951553 
z"/>
<path fill="#B08C61" opacity="1.000000" stroke="none" 
	d="
M145.600708,95.042923 
	C142.733871,97.763100 139.424576,100.350243 135.797211,103.012901 
	C135.307877,100.667862 135.136597,98.247307 134.900436,94.909897 
	C138.501755,94.909897 141.830017,94.909897 145.600708,95.042923 
z"/>
<path fill="#B1895A" opacity="1.000000" stroke="none" 
	d="
M121.676552,82.837097 
	C122.590439,84.523964 123.283272,86.387932 124.463669,87.861275 
	C127.017929,91.049454 129.000610,90.530357 130.735748,86.670776 
	C131.082001,88.248695 131.111115,89.658333 131.140228,91.067970 
	C127.257446,91.067970 123.374664,91.067970 118.676003,91.067970 
	C119.113693,88.767036 119.484215,86.819221 120.190567,84.367432 
	C120.909790,83.521339 121.293167,83.179222 121.676552,82.837097 
z"/>
<path fill="#7F6844" opacity="1.000000" stroke="none" 
	d="
M135.501053,107.405792 
	C140.431961,107.590797 143.960175,104.991730 147.716064,102.038910 
	C148.068954,104.116257 148.068954,106.246758 148.068954,109.574684 
	C143.737808,108.970192 139.582062,108.390175 135.501053,107.405792 
z"/>
<path fill="#7E6748" opacity="1.000000" stroke="none" 
	d="
M118.847298,101.438034 
	C120.555435,102.728874 122.021835,104.632896 123.801765,106.175049 
	C126.889465,108.850281 129.378494,108.433693 131.014343,104.170502 
	C131.458786,105.482864 131.618362,106.912498 131.822830,108.744438 
	C127.368309,108.744438 123.345612,108.744438 118.746681,108.744438 
	C118.746681,106.385666 118.746681,104.137001 118.847298,101.438034 
z"/>
<path fill="#AC8960" opacity="1.000000" stroke="none" 
	d="
M136.513184,90.987213 
	C136.492783,90.581635 136.883667,90.161179 137.326981,90.095680 
	C144.719574,89.003532 144.721039,89.013451 144.712830,82.220284 
	C145.902878,83.459290 146.826767,84.925751 147.874908,86.961456 
	C148.069504,87.694786 148.139877,87.858864 148.210236,88.022934 
	C147.232285,89.116493 146.372528,90.978584 145.252884,91.150772 
	C142.549500,91.566536 139.724701,91.192879 136.513184,90.987213 
z"/>
<path fill="#ECDDC6" opacity="1.000000" stroke="none" 
	d="
M131.520691,90.958702 
	C131.111115,89.658333 131.082001,88.248695 130.995773,86.420158 
	C131.013504,83.276016 131.088348,80.550766 131.190277,77.368866 
	C134.598557,81.403252 133.072113,86.135063 131.520691,90.958702 
z"/>
<path fill="#EADFCE" opacity="1.000000" stroke="none" 
	d="
M131.259644,98.019119 
	C131.108337,97.198181 131.126129,96.444801 131.136566,95.312378 
	C131.537659,95.865776 131.946106,96.798210 132.073761,97.908951 
	C131.792938,98.087257 131.428741,98.086685 131.259644,98.019119 
z"/>
<path fill="#8F7C5F" opacity="1.000000" stroke="none" 
	d="
M195.287659,80.939552 
	C195.856995,80.400803 196.728622,79.865700 197.932800,79.515594 
	C197.373566,80.114792 196.481766,80.528992 195.287659,80.939552 
z"/>
<path fill="#ECDDC6" opacity="1.000000" stroke="none" 
	d="
M121.769852,82.549744 
	C121.293167,83.179222 120.909790,83.521339 120.293526,83.975067 
	C120.548172,83.155556 121.035698,82.224442 121.845337,81.194229 
	C122.066025,81.484222 121.964592,81.873306 121.769852,82.549744 
z"/>
<path fill="#EADFCE" opacity="1.000000" stroke="none" 
	d="
M118.258133,96.966263 
	C118.583450,97.394279 118.669388,97.891487 118.615128,98.747269 
	C118.322868,98.415710 118.170815,97.725586 118.258133,96.966263 
z"/>
<path fill="#B1895A" opacity="1.000000" stroke="none" 
	d="
M124.838036,79.616707 
	C124.403870,80.050117 123.969696,80.483521 123.201019,80.939011 
	C122.866516,80.961105 122.938576,80.539192 123.306206,80.280655 
	C124.061905,79.886986 124.449966,79.751846 124.838036,79.616707 
z"/>
<path fill="#ECDDC6" opacity="1.000000" stroke="none" 
	d="
M124.836136,79.432266 
	C124.449966,79.751846 124.061905,79.886986 123.370255,80.076447 
	C123.446617,79.743645 123.826569,79.356514 124.488953,78.926865 
	C124.771400,78.884338 124.834229,79.247833 124.836136,79.432266 
z"/>
<path fill="#EEE2CC" opacity="1.000000" stroke="none" 
	d="
M148.345062,87.904251 
	C148.139877,87.858864 148.069504,87.694786 148.011963,87.263245 
	C148.176468,87.259041 148.328186,87.522308 148.345062,87.904251 
z"/>
<path fill="#7F653E" opacity="1.000000" stroke="none" 
	d="
M102.335075,108.239006 
	C102.076920,108.379517 101.720932,108.289070 101.358658,107.888947 
	C101.647324,107.722191 101.942291,107.865128 102.335075,108.239006 
z"/>
<path fill="#80653E" opacity="1.000000" stroke="none" 
	d="
M172.443146,209.448822 
	C173.601639,210.531296 174.438187,211.757919 175.274734,212.984528 
	C174.463852,213.318909 173.652985,213.653275 172.842117,213.987656 
	C172.601807,212.522751 172.361511,211.057861 172.443146,209.448822 
z"/>
</svg>